<?xml version="1.0" standalone="no"?>
<!DOCTYPE svg PUBLIC "-//W3C//DTD SVG 20010904//EN"
 "http://www.w3.org/TR/2001/REC-SVG-20010904/DTD/svg10.dtd">
<svg version="1.0" xmlns="http://www.w3.org/2000/svg"
 width="80.000000pt" height="58.000000pt" viewBox="0 0 80.000000 58.000000"
 preserveAspectRatio="xMidYMid meet">

<g transform="translate(0.000000,58.000000) scale(0.100000,-0.100000)"
fill="#000000" stroke="none">
<path d="M27 552 c-15 -16 -17 -50 -17 -264 0 -225 2 -246 18 -261 10 -10 26
-17 35 -17 15 0 17 14 17 113 0 61 3 156 7 209 7 115 -11 117 180 -19 85 -61
137 -92 145 -87 7 5 75 52 151 106 75 55 142 96 147 93 6 -4 10 -88 10 -211 0
-192 1 -204 18 -204 11 0 26 8 35 18 15 16 17 50 17 264 0 230 -1 246 -19 262
-23 21 -6 30 -200 -106 -84 -59 -160 -108 -168 -108 -17 0 -33 10 -207 132
-76 54 -142 98 -146 98 -4 0 -14 -8 -23 -18z"/>
</g>
</svg>
