<?xml version="1.0" standalone="no"?>
<!DOCTYPE svg PUBLIC "-//W3C//DTD SVG 20010904//EN"
 "http://www.w3.org/TR/2001/REC-SVG-20010904/DTD/svg10.dtd">
<svg version="1.0" xmlns="http://www.w3.org/2000/svg"
 width="128.000000pt" height="128.000000pt" viewBox="0 0 128.000000 128.000000"
 preserveAspectRatio="xMidYMid meet">

<g transform="translate(0.000000,128.000000) scale(0.100000,-0.100000)"
fill="#000000" stroke="none">
<path d="M260 910 c-19 -19 -20 -33 -20 -270 0 -237 1 -251 20 -270 11 -11 31
-20 45 -20 l25 0 2 214 3 214 153 -110 153 -110 154 111 155 110 0 -214 0
-215 25 0 c14 0 34 9 45 20 19 19 20 33 20 270 0 237 -1 251 -20 270 -11 11
-24 20 -29 20 -5 0 -84 -54 -175 -120 -92 -66 -171 -120 -175 -120 -5 0 -84
54 -176 120 -92 66 -171 120 -176 120 -5 0 -18 -9 -29 -20z"/>
</g>
</svg>
