<svg version="1.1" id="Layer_1" xmlns="http://www.w3.org/2000/svg" xmlns:xlink="http://www.w3.org/1999/xlink" x="0px" y="0px"
	 width="100%" viewBox="0 0 333 242" enable-background="new 0 0 333 242" xml:space="preserve">
<path fill="#FFFEFE" opacity="1.000000" stroke="none" 
	d="
M202.000000,243.000000 
	C134.666672,243.000000 67.833351,243.000000 1.000018,243.000000 
	C1.000012,162.333344 1.000012,81.666702 1.000006,1.000040 
	C111.999969,1.000026 222.999939,1.000026 333.999939,1.000013 
	C333.999939,81.666626 333.999939,162.333252 333.999969,242.999939 
	C290.166656,243.000000 246.333328,243.000000 202.000000,243.000000 
M5.050690,84.945694 
	C5.085822,108.599464 5.120955,132.253235 4.999300,156.844559 
	C5.390452,171.919540 5.781603,186.994537 6.038796,202.972382 
	C6.675406,209.386017 7.191109,215.814529 7.977970,222.209671 
	C9.062048,231.020416 15.323823,235.287476 22.833124,237.953247 
	C29.068390,240.166733 32.250301,237.927780 32.982685,231.376190 
	C33.437012,227.311996 33.863178,223.226135 33.949848,219.142532 
	C34.357201,199.949829 34.596539,180.753586 34.988152,161.560486 
	C35.239887,149.222733 35.449135,136.878464 36.044773,124.554871 
	C36.732174,110.332756 37.940598,96.136490 38.708775,81.917442 
	C39.587208,65.657387 45.513859,67.019531 56.012264,73.626045 
	C69.669899,82.220650 82.873444,91.548164 96.133789,100.759819 
	C111.617340,111.515884 126.810104,122.695465 142.410141,133.276855 
	C150.178894,138.546356 158.547531,142.938751 166.701843,147.628738 
	C169.652084,149.325607 172.336380,149.168884 175.390915,146.969452 
	C191.325974,135.495331 207.396637,124.207146 223.514420,112.989769 
	C241.712708,100.324432 259.935822,87.691414 278.311340,75.286133 
	C283.909302,71.506958 290.047150,68.527473 295.937714,65.181740 
	C296.524231,65.496689 297.110748,65.811646 297.697266,66.126595 
	C298.495392,80.022675 299.293518,93.918762 299.888123,108.767990 
	C300.016174,119.261604 300.115295,129.755676 300.280762,140.248703 
	C300.432770,149.887283 300.656281,159.524734 300.729462,170.073364 
	C300.811249,179.196625 300.893005,188.319901 300.761658,197.843384 
	C300.841248,198.765701 300.920837,199.688019 300.938232,201.594925 
	C301.569580,212.191330 301.921844,222.815201 302.961304,233.371429 
	C303.415741,237.986908 306.642120,239.458679 311.162170,238.373489 
	C319.920105,236.270889 325.351318,230.519516 326.775085,221.956772 
	C328.210663,213.322906 328.332886,204.470657 329.232086,195.666626 
	C329.340637,195.419159 329.281158,195.263916 329.167542,194.387680 
	C329.175140,193.022018 329.182770,191.656357 329.568665,189.517242 
	C329.674744,180.615723 329.780823,171.714188 329.961243,161.945679 
	C329.909637,159.331024 329.858032,156.716370 329.963867,153.154297 
	C329.910370,129.738159 329.856873,106.322029 329.950592,82.020508 
	C329.931427,78.745277 329.912292,75.470039 330.070221,71.235359 
	C329.775360,62.758541 329.480530,54.281719 329.233032,45.037254 
	C329.162384,44.272190 329.091736,43.507122 329.217621,42.687141 
	C329.297180,42.441017 329.222626,42.287697 329.025787,41.340565 
	C328.701385,37.584034 328.653320,33.777588 327.985931,30.083021 
	C327.055054,24.929893 326.637512,19.342409 324.261139,14.863582 
	C319.405243,5.711596 314.667542,4.797291 305.929565,10.336862 
	C294.585236,17.528799 283.301422,24.832184 272.228729,32.433094 
	C253.098160,45.565365 234.290634,59.171036 215.078506,72.180763 
	C201.236130,81.554298 187.040726,90.419563 172.783722,99.153946 
	C170.596542,100.493889 166.998840,100.726334 164.455276,100.021362 
	C160.193115,98.840088 155.941162,96.969597 152.240448,94.542191 
	C142.619553,88.231575 133.326050,81.423790 123.854469,74.883072 
	C112.771698,67.229744 101.577538,59.736454 90.546715,52.009537 
	C81.587837,45.733982 72.946457,38.998268 63.897305,32.860226 
	C52.437401,25.086967 40.613472,17.851454 29.124969,10.118924 
	C20.843533,4.544964 15.684198,5.985736 10.957523,15.025543 
	C6.151102,24.217867 6.015354,33.994423 6.012015,44.776917 
	C5.726747,57.854931 5.441478,70.932945 5.050690,84.945694 
z"/>
<path fill="#E91D26" opacity="1.000000" stroke="none" 
	d="
M329.190369,190.290695 
	C329.182770,191.656357 329.175140,193.022018 329.052124,194.918457 
	C328.936676,195.449249 329.030548,195.714096 329.030548,195.714096 
	C328.332886,204.470657 328.210663,213.322906 326.775085,221.956772 
	C325.351318,230.519516 319.920105,236.270889 311.162170,238.373489 
	C306.642120,239.458679 303.415741,237.986908 302.961304,233.371429 
	C301.921844,222.815201 301.569580,212.191330 301.023041,200.790680 
	C301.063507,199.138672 301.019165,198.290924 300.974792,197.443161 
	C300.893005,188.319901 300.811249,179.196625 300.885834,169.146713 
	C301.053802,149.485825 301.086517,130.751526 301.034393,112.017471 
	C301.030487,110.615730 300.420105,109.215683 300.091614,107.814842 
	C299.293518,93.918762 298.495392,80.022675 297.697266,66.126595 
	C297.110748,65.811646 296.524231,65.496689 295.937714,65.181740 
	C290.047150,68.527473 283.909302,71.506958 278.311340,75.286133 
	C259.935822,87.691414 241.712708,100.324432 223.514420,112.989769 
	C207.396637,124.207146 191.325974,135.495331 175.390915,146.969452 
	C172.336380,149.168884 169.652084,149.325607 166.701843,147.628738 
	C158.547531,142.938751 150.178894,138.546356 142.410141,133.276855 
	C126.810104,122.695465 111.617340,111.515884 96.133789,100.759819 
	C82.873444,91.548164 69.669899,82.220650 56.012264,73.626045 
	C45.513859,67.019531 39.587208,65.657387 38.708775,81.917442 
	C37.940598,96.136490 36.732174,110.332756 36.044773,124.554871 
	C35.449135,136.878464 35.239887,149.222733 34.988152,161.560486 
	C34.596539,180.753586 34.357201,199.949829 33.949848,219.142532 
	C33.863178,223.226135 33.437012,227.311996 32.982685,231.376190 
	C32.250301,237.927780 29.068390,240.166733 22.833124,237.953247 
	C15.323823,235.287476 9.062048,231.020416 7.977970,222.209671 
	C7.191109,215.814529 6.675406,209.386017 6.379552,202.197662 
	C6.820636,200.771042 7.008657,200.119156 7.008803,199.467255 
	C7.020148,148.865234 7.022745,98.263199 6.979514,47.661209 
	C6.978446,46.410320 6.457217,45.159878 6.178589,43.909225 
	C6.015354,33.994423 6.151102,24.217867 10.957523,15.025543 
	C15.684198,5.985736 20.843533,4.544964 29.124969,10.118924 
	C40.613472,17.851454 52.437401,25.086967 63.897305,32.860226 
	C72.946457,38.998268 81.587837,45.733982 90.546715,52.009537 
	C101.577538,59.736454 112.771698,67.229744 123.854469,74.883072 
	C133.326050,81.423790 142.619553,88.231575 152.240448,94.542191 
	C155.941162,96.969597 160.193115,98.840088 164.455276,100.021362 
	C166.998840,100.726334 170.596542,100.493889 172.783722,99.153946 
	C187.040726,90.419563 201.236130,81.554298 215.078506,72.180763 
	C234.290634,59.171036 253.098160,45.565365 272.228729,32.433094 
	C283.301422,24.832184 294.585236,17.528799 305.929565,10.336862 
	C314.667542,4.797291 319.405243,5.711596 324.261139,14.863582 
	C326.637512,19.342409 327.055054,24.929893 327.985931,30.083021 
	C328.653320,33.777588 328.701385,37.584034 328.963440,41.914089 
	C328.901062,42.487614 329.021118,42.742054 329.021118,42.742054 
	C329.091736,43.507122 329.162384,44.272190 329.094421,45.892166 
	C328.938965,50.208431 328.792267,53.675182 328.936066,57.129845 
	C329.145294,62.156071 329.563843,67.173584 329.893127,72.194809 
	C329.912292,75.470039 329.931427,78.745277 329.583191,82.775146 
	C329.133698,106.478081 329.045502,129.426361 329.004852,152.374710 
	C329.003815,152.949905 329.527496,153.526016 329.806458,154.101715 
	C329.858032,156.716370 329.909637,159.331024 329.632202,162.703613 
	C329.265533,172.404602 329.227966,181.347641 329.190369,190.290695 
z"/>
<path fill="#AD3A3E" opacity="1.000000" stroke="none" 
	d="
M6.095302,44.343071 
	C6.457217,45.159878 6.978446,46.410320 6.979514,47.661209 
	C7.022745,98.263199 7.020148,148.865234 7.008803,199.467255 
	C7.008657,200.119156 6.820636,200.771042 6.446531,201.746216 
	C5.781603,186.994537 5.390452,171.919540 5.351588,156.074188 
	C5.772724,132.133713 5.847221,108.963608 5.878630,85.793442 
	C5.879436,85.199608 5.407613,84.605133 5.156209,84.010956 
	C5.441478,70.932945 5.726747,57.854931 6.095302,44.343071 
z"/>
<path fill="#67181B" opacity="1.000000" stroke="none" 
	d="
M5.103450,84.478325 
	C5.407613,84.605133 5.879436,85.199608 5.878630,85.793442 
	C5.847221,108.963608 5.772724,132.133713 5.429981,155.605408 
	C5.120955,132.253235 5.085822,108.599464 5.103450,84.478325 
z"/>
<path fill="#572023" opacity="1.000000" stroke="none" 
	d="
M329.885193,153.627991 
	C329.527496,153.526016 329.003815,152.949905 329.004852,152.374710 
	C329.045502,129.426361 329.133698,106.478081 329.509583,83.217842 
	C329.856873,106.322029 329.910370,129.738159 329.885193,153.627991 
z"/>
<path fill="#8E595C" opacity="1.000000" stroke="none" 
	d="
M299.989868,108.291412 
	C300.420105,109.215683 301.030487,110.615730 301.034393,112.017471 
	C301.086517,130.751526 301.053802,149.485825 300.945251,168.691376 
	C300.656281,159.524734 300.432770,149.887283 300.280762,140.248703 
	C300.115295,129.755676 300.016174,119.261604 299.989868,108.291412 
z"/>
<path fill="#996265" opacity="1.000000" stroke="none" 
	d="
M329.379517,189.903961 
	C329.227966,181.347641 329.265533,172.404602 329.595001,163.137115 
	C329.780823,171.714188 329.674744,180.615723 329.379517,189.903961 
z"/>
<path fill="#9A6467" opacity="1.000000" stroke="none" 
	d="
M329.981689,71.715088 
	C329.563843,67.173584 329.145294,62.156071 328.936066,57.129845 
	C328.792267,53.675182 328.938965,50.208431 329.070740,46.275993 
	C329.480530,54.281719 329.775360,62.758541 329.981689,71.715088 
z"/>
<path fill="#8E595C" opacity="1.000000" stroke="none" 
	d="
M300.868225,197.643280 
	C301.019165,198.290924 301.063507,199.138672 301.054138,200.298386 
	C300.920837,199.688019 300.841248,198.765701 300.868225,197.643280 
z"/>
<path fill="#9A6467" opacity="1.000000" stroke="none" 
	d="
M329.119385,42.714600 
	C329.021118,42.742054 328.901062,42.487614 328.947510,42.357399 
	C329.222626,42.287697 329.297180,42.441017 329.119385,42.714600 
z"/>
<path fill="#996265" opacity="1.000000" stroke="none" 
	d="
M329.131317,195.690369 
	C329.030548,195.714096 328.936676,195.449249 328.995178,195.325073 
	C329.281158,195.263916 329.340637,195.419159 329.131317,195.690369 
z"/>
</svg>