<?xml version="1.0" standalone="no"?>
<!DOCTYPE svg PUBLIC "-//W3C//DTD SVG 20010904//EN"
 "http://www.w3.org/TR/2001/REC-SVG-20010904/DTD/svg10.dtd">
<svg version="1.0" xmlns="http://www.w3.org/2000/svg"
 width="417.000000pt" height="417.000000pt" viewBox="0 0 417.000000 417.000000"
 preserveAspectRatio="xMidYMid meet">

<g transform="translate(0.000000,417.000000) scale(0.100000,-0.100000)"
fill="#000000" stroke="none">
<path d="M1875 4154 c-280 -38 -466 -91 -684 -195 -598 -286 -1023 -841 -1146
-1499 -98 -520 17 -1075 315 -1520 103 -154 166 -229 284 -344 433 -420 1045
-635 1637 -576 561 57 1053 319 1415 755 137 164 291 443 358 645 74 225 97
364 103 620 6 265 -11 395 -90 675 -76 272 -279 607 -501 827 -128 128 -136
135 -263 226 -272 195 -520 301 -853 364 -80 15 -157 21 -325 23 -121 2 -233
1 -250 -1z m373 -195 c278 -26 457 -79 722 -215 281 -144 558 -404 725 -679
86 -142 162 -321 214 -500 56 -195 75 -489 46 -720 -53 -421 -248 -813 -551
-1107 -167 -162 -299 -253 -515 -357 -151 -72 -270 -112 -443 -148 -122 -26
-147 -28 -366 -27 -218 0 -244 2 -363 28 -153 33 -294 80 -435 146 -144 69
-233 124 -387 240 -56 43 -259 256 -316 332 -272 366 -407 824 -371 1261 21
255 76 461 182 684 103 217 205 359 381 530 134 131 148 143 258 217 362 242
797 355 1219 315z"/>
<path d="M1440 2935 c-55 -17 -115 -73 -131 -122 -17 -53 -7 -143 20 -182 58
-81 142 -113 246 -91 48 10 66 20 106 60 52 52 65 88 57 168 -6 60 -46 122
-99 151 -51 29 -138 36 -199 16z"/>
<path d="M2455 2453 c-41 -9 -81 -28 -130 -61 l-50 -34 -8 24 c-21 55 -12 53
-202 56 -122 2 -182 -1 -191 -9 -19 -16 -21 -1068 -2 -1087 17 -17 369 -17
386 0 9 9 12 99 12 344 0 328 0 331 23 365 12 18 38 44 57 57 30 20 44 23 94
20 51 -4 63 -9 87 -36 15 -17 33 -48 38 -69 7 -23 11 -163 11 -353 0 -232 3
-319 12 -328 19 -19 372 -17 388 3 9 11 11 101 7 377 -4 323 -7 370 -24 429
-60 203 -203 311 -407 308 -45 -1 -90 -3 -101 -6z"/>
<path d="M1325 2428 c-3 -7 -4 -256 -3 -553 l3 -540 184 -3 c127 -2 188 1 197
9 19 16 21 1068 2 1087 -17 17 -377 17 -383 0z"/>
</g>
</svg>
