<?xml version="1.0" encoding="UTF-8" standalone="no" ?>
<!DOCTYPE svg PUBLIC "-//W3C//DTD SVG 1.1//EN" "http://www.w3.org/Graphics/SVG/1.1/DTD/svg11.dtd">
<svg xmlns="http://www.w3.org/2000/svg" xmlns:xlink="http://www.w3.org/1999/xlink" version="1.1" width="640" height="480" viewBox="0 0 640 480" xml:space="preserve">
<desc>Created with Fabric.js 3.6.6</desc>
<defs>
</defs>
<g transform="matrix(18.57 0 0 18.57 214.03 223.11)"  >
<path style="stroke: none; stroke-width: 1; stroke-dasharray: none; stroke-linecap: butt; stroke-dashoffset: 0; stroke-linejoin: miter; stroke-miterlimit: 4; fill: rgb(255,210,74); fill-rule: nonzero; opacity: 1;"  transform=" translate(-12, -12)" d="M 4.459 4.208 c 0.746 0.606 1.026 0.56 2.428 0.466 l 13.215 -0.793 c 0.28 0 0.047 -0.28 -0.046 -0.326 L 17.86 1.968 c -0.42 -0.326 -0.981 -0.7 -2.055 -0.607 L 3.01 2.295 c -0.466 0.046 -0.56 0.28 -0.374 0.466 z m 0.793 3.08 v 13.904 c 0 0.747 0.373 1.027 1.214 0.98 l 14.523 -0.84 c 0.841 -0.046 0.935 -0.56 0.935 -1.167 V 6.354 c 0 -0.606 -0.233 -0.933 -0.748 -0.887 l -15.177 0.887 c -0.56 0.047 -0.747 0.327 -0.747 0.933 z m 14.337 0.745 c 0.093 0.42 0 0.84 -0.42 0.888 l -0.7 0.14 v 10.264 c -0.608 0.327 -1.168 0.514 -1.635 0.514 c -0.748 0 -0.935 -0.234 -1.495 -0.933 l -4.577 -7.186 v 6.952 L 12.21 19 s 0 0.84 -1.168 0.84 l -3.222 0.186 c -0.093 -0.186 0 -0.653 0.327 -0.746 l 0.84 -0.233 V 9.854 L 7.822 9.76 c -0.094 -0.42 0.14 -1.026 0.793 -1.073 l 3.456 -0.233 l 4.764 7.279 v -6.44 l -1.215 -0.139 c -0.093 -0.514 0.28 -0.887 0.747 -0.933 z M 1.936 1.035 l 13.31 -0.98 c 1.634 -0.14 2.055 -0.047 3.082 0.7 l 4.249 2.986 c 0.7 0.513 0.934 0.653 0.934 1.213 v 16.378 c 0 1.026 -0.373 1.634 -1.68 1.726 l -15.458 0.934 c -0.98 0.047 -1.448 -0.093 -1.962 -0.747 l -3.129 -4.06 c -0.56 -0.747 -0.793 -1.306 -0.793 -1.96 V 2.667 c 0 -0.839 0.374 -1.54 1.447 -1.632 z" stroke-linecap="round" />
</g>
</svg>