<svg version="1.1" id="Layer_1" xmlns="http://www.w3.org/2000/svg" xmlns:xlink="http://www.w3.org/1999/xlink" x="0px" y="0px"
	 width="100%" viewBox="0 0 400 417" enable-background="new 0 0 400 417" xml:space="preserve">
<path fill="#FEFEFC" opacity="1.000000" stroke="none" 
	d="
M1.000002,149.000000 
	C1.000000,99.680763 1.000000,50.361534 1.000000,1.021150 
	C134.281128,1.021150 267.562256,1.021150 400.921692,1.021150 
	C400.921692,139.908035 400.921692,278.816132 400.921692,417.862122 
	C267.666748,417.862122 134.333405,417.862122 1.000000,417.862122 
	C1.000000,364.238739 1.000000,310.587219 1.275729,256.542511 
	C2.027983,256.453949 2.504509,256.758575 3.023298,257.294769 
	C3.065560,257.526337 3.173074,257.984680 3.089395,258.412842 
	C2.736828,260.412842 2.113658,262.020569 2.268669,263.549438 
	C2.658906,267.398285 3.400219,271.211548 4.066750,275.272705 
	C4.132700,275.506348 4.257028,275.975708 4.138192,276.362518 
	C3.204036,279.966583 1.753550,283.250824 5.020725,286.276703 
	C5.042552,286.513458 4.932198,286.975983 4.618440,287.150574 
	C4.863876,289.232635 5.423070,291.140076 6.023811,293.362671 
	C6.080124,294.101288 6.094892,294.524750 5.812612,295.085571 
	C5.999886,296.509125 6.484207,297.795288 6.938776,299.391541 
	C7.278113,301.197296 7.813243,302.673676 7.990128,304.191803 
	C9.459794,316.805267 15.242522,327.743958 22.153934,337.924194 
	C30.679188,350.481567 39.855751,362.628448 49.277378,374.536133 
	C57.615070,385.073853 66.258324,395.445557 75.618378,405.061554 
	C79.403168,408.949860 81.865318,415.392639 90.660110,413.519196 
	C100.787926,411.361816 111.567253,412.260925 122.063843,411.837646 
	C125.943947,411.681183 129.836807,411.684357 133.702530,411.360229 
	C142.062576,410.659210 150.397934,409.637238 158.764832,409.054077 
	C163.807968,408.702606 168.891373,408.929047 174.351624,408.973572 
	C176.979324,409.054901 179.221313,409.189880 181.442963,409.034454 
	C185.973297,408.717590 190.492722,408.244232 195.423737,407.872925 
	C202.645218,407.263855 209.457153,406.588867 216.276794,406.003632 
	C217.215225,405.923096 218.195618,406.442963 219.150223,406.420013 
	C223.590363,406.313446 228.030746,406.159698 232.465530,405.920563 
	C233.886841,405.843933 235.287781,405.269165 236.704056,405.242554 
	C240.447495,405.172180 244.213669,405.537415 247.935699,405.259430 
	C256.290161,404.635498 264.609070,403.477142 272.968903,402.998505 
	C282.952698,402.426819 292.966034,402.390167 302.962708,402.017700 
	C308.095367,401.826508 313.230072,401.525543 318.344818,401.063446 
	C324.369965,400.519135 330.360046,399.520233 336.391937,399.135651 
	C342.623444,398.738342 348.914093,399.165741 355.129425,398.643524 
	C362.718018,398.005951 370.325348,397.119659 377.796936,395.678864 
	C387.515533,393.804718 391.025543,394.899078 391.992126,383.090637 
	C392.757050,373.746338 393.234955,364.378540 394.045471,354.653137 
	C394.460846,343.179718 394.671082,332.074341 394.921997,320.503662 
	C395.253143,291.700836 395.543640,263.363312 395.958984,234.601166 
	C396.321472,230.364380 396.746307,226.553192 396.766724,222.739838 
	C396.910828,195.788498 397.003021,168.836761 397.044128,141.885040 
	C397.060364,131.244888 396.903809,120.604446 396.907562,109.503952 
	C397.084900,101.384636 396.600311,93.656746 397.496460,86.092438 
	C398.024261,81.637505 395.953827,79.412712 393.330505,77.134468 
	C390.770081,74.910820 387.849487,73.102455 385.091125,71.106049 
	C372.639038,62.093651 360.283447,52.943779 347.704681,44.111805 
	C338.910095,37.936836 329.868622,32.105972 320.828644,26.290543 
	C314.248383,22.057491 307.861511,17.198505 300.713776,14.259077 
	C292.593048,10.919516 283.809479,8.957610 275.145477,7.254263 
	C269.182098,6.081862 262.930725,6.058416 256.810211,6.082140 
	C249.260803,6.111401 241.709778,6.656218 234.166519,7.098932 
	C224.579468,7.661596 214.999557,8.345603 205.416534,8.976791 
	C195.054260,9.659302 184.688934,10.298681 174.330688,11.037613 
	C166.778122,11.576395 159.227661,12.168875 151.689255,12.875981 
	C141.047867,13.874149 130.425140,15.072595 119.782173,16.052238 
	C108.114822,17.126173 96.429871,18.007540 84.759277,19.047915 
	C70.975090,20.276703 57.175476,21.385857 43.426689,22.937853 
	C35.610294,23.820183 27.845863,25.303005 20.125036,26.849842 
	C13.289596,28.219292 9.001392,32.418133 7.802421,39.481724 
	C6.587611,46.638626 5.204941,53.770420 4.176463,60.953400 
	C3.886388,62.979309 4.708001,65.142197 4.777476,67.250237 
	C4.818119,68.483437 4.379902,69.732414 3.961859,71.345718 
	C3.523085,73.518013 3.035346,75.324928 3.079705,77.118675 
	C3.243071,83.724800 3.582728,90.326561 3.640491,97.033417 
	C3.119044,97.350357 3.025630,97.633835 3.033366,98.401840 
	C3.010545,114.882248 3.099028,130.948120 3.134268,147.243469 
	C3.081025,147.472931 2.989387,147.935059 2.719740,148.033447 
	C1.966730,148.421234 1.483367,148.710617 1.000002,149.000000 
z"/>
<path fill="#E8C851" opacity="1.000000" stroke="none" 
	d="
M1.000002,149.468658 
	C1.483367,148.710617 1.966730,148.421234 2.745589,148.507202 
	C3.021070,184.942780 3.001053,221.002991 2.981036,257.063202 
	C2.504509,256.758575 2.027983,256.453949 1.275729,256.074646 
	C1.000000,249.645599 1.000000,243.291214 1.308401,236.184845 
	C1.712538,223.511749 1.820596,211.590683 1.865084,199.669357 
	C1.867157,199.113998 1.301336,198.556503 0.999999,198.000000 
	C1.000000,181.979111 1.000000,165.958206 1.000002,149.468658 
z"/>
<path fill="#8F7514" opacity="1.000000" stroke="none" 
	d="
M0.999999,198.468658 
	C1.301336,198.556503 1.867157,199.113998 1.865084,199.669357 
	C1.820596,211.590683 1.712538,223.511749 1.308401,235.716431 
	C1.000000,223.645767 1.000000,211.291550 0.999999,198.468658 
z"/>
<path fill="#FDC912" opacity="1.000000" stroke="none" 
	d="
M3.023298,257.294769 
	C3.001053,221.002991 3.021070,184.942780 3.015237,148.408813 
	C2.989387,147.935059 3.081025,147.472931 3.377667,146.911163 
	C3.774055,130.806564 3.882817,115.263771 3.938117,99.720787 
	C3.940170,99.143913 3.420961,98.565186 3.144669,97.987320 
	C3.025630,97.633835 3.119044,97.350357 3.983075,96.788918 
	C4.413196,87.952072 4.285151,79.463181 4.157107,70.974297 
	C4.379902,69.732414 4.818119,68.483437 4.777476,67.250237 
	C4.708001,65.142197 3.886388,62.979309 4.176463,60.953400 
	C5.204941,53.770420 6.587611,46.638626 7.802421,39.481724 
	C9.001392,32.418133 13.289596,28.219292 20.125036,26.849842 
	C27.845863,25.303005 35.610294,23.820183 43.426689,22.937853 
	C57.175476,21.385857 70.975090,20.276703 84.759277,19.047915 
	C96.429871,18.007540 108.114822,17.126173 119.782173,16.052238 
	C130.425140,15.072595 141.047867,13.874149 151.689255,12.875981 
	C159.227661,12.168875 166.778122,11.576395 174.330688,11.037613 
	C184.688934,10.298681 195.054260,9.659302 205.416534,8.976791 
	C214.999557,8.345603 224.579468,7.661596 234.166519,7.098932 
	C241.709778,6.656218 249.260803,6.111401 256.810211,6.082140 
	C262.930725,6.058416 269.182098,6.081862 275.145477,7.254263 
	C283.809479,8.957610 292.593048,10.919516 300.713776,14.259077 
	C307.861511,17.198505 314.248383,22.057491 320.828644,26.290543 
	C329.868622,32.105972 338.910095,37.936836 347.704681,44.111805 
	C360.283447,52.943779 372.639038,62.093651 385.091125,71.106049 
	C387.849487,73.102455 390.770081,74.910820 393.330505,77.134468 
	C395.953827,79.412712 398.024261,81.637505 397.496460,86.092438 
	C396.600311,93.656746 397.084900,101.384636 396.586182,109.725151 
	C395.781952,112.455048 395.034607,114.502930 395.030884,116.552170 
	C394.962067,154.299011 394.970886,192.046021 395.019592,229.792923 
	C395.021851,231.537552 395.550568,233.281509 395.834106,235.025772 
	C395.543640,263.363312 395.253143,291.700836 394.533020,320.608185 
	C393.727631,322.676086 393.055908,324.168579 393.027588,325.673218 
	C392.906830,332.085602 392.881927,338.503571 393.014923,344.915497 
	C393.084869,348.288300 393.552338,351.652893 393.840302,355.021179 
	C393.234955,364.378540 392.757050,373.746338 391.992126,383.090637 
	C391.025543,394.899078 387.515533,393.804718 377.796936,395.678864 
	C370.325348,397.119659 362.718018,398.005951 355.129425,398.643524 
	C348.914093,399.165741 342.623444,398.738342 336.391937,399.135651 
	C330.360046,399.520233 324.369965,400.519135 318.344818,401.063446 
	C313.230072,401.525543 308.095367,401.826508 302.962708,402.017700 
	C292.966034,402.390167 282.952698,402.426819 272.968903,402.998505 
	C264.609070,403.477142 256.290161,404.635498 247.935699,405.259430 
	C244.213669,405.537415 240.447495,405.172180 236.704056,405.242554 
	C235.287781,405.269165 233.886841,405.843933 232.465530,405.920563 
	C228.030746,406.159698 223.590363,406.313446 219.150223,406.420013 
	C218.195618,406.442963 217.215225,405.923096 216.276794,406.003632 
	C209.457153,406.588867 202.645218,407.263855 195.113525,407.596313 
	C188.817047,407.181732 183.235672,406.964203 177.660507,407.071106 
	C176.414688,407.094971 175.190704,408.257477 173.956680,408.895782 
	C168.891373,408.929047 163.807968,408.702606 158.764832,409.054077 
	C150.397934,409.637238 142.062576,410.659210 133.702530,411.360229 
	C129.836807,411.684357 125.943947,411.681183 122.063843,411.837646 
	C111.567253,412.260925 100.787926,411.361816 90.660110,413.519196 
	C81.865318,415.392639 79.403168,408.949860 75.618378,405.061554 
	C66.258324,395.445557 57.615070,385.073853 49.277378,374.536133 
	C39.855751,362.628448 30.679188,350.481567 22.153934,337.924194 
	C15.242522,327.743958 9.459794,316.805267 7.990128,304.191803 
	C7.813243,302.673676 7.278113,301.197296 6.972984,299.018738 
	C6.727849,297.206696 6.418755,296.077484 6.109659,294.948242 
	C6.094892,294.524750 6.080124,294.101288 6.051010,292.952271 
	C5.668508,290.476501 5.300353,288.726257 4.932198,286.975983 
	C4.932198,286.975983 5.042552,286.513458 5.043487,285.829102 
	C4.781958,282.088409 4.519493,279.032043 4.257028,275.975708 
	C4.257028,275.975708 4.132700,275.506348 4.085237,274.802032 
	C3.749541,268.726715 3.461308,263.355682 3.173075,257.984680 
	C3.173074,257.984680 3.065560,257.526337 3.023298,257.294769 
M48.003418,61.996250 
	C48.003418,61.996250 48.031021,61.936321 48.205933,62.428787 
	C48.495663,62.605099 48.785393,62.781410 48.999352,62.981716 
	C48.999352,62.981716 49.052109,62.922260 49.109886,63.646290 
	C50.113144,64.075699 51.116402,64.505112 52.735561,65.281174 
	C53.437897,66.143333 53.989246,67.222641 54.866798,67.832794 
	C61.088787,72.158875 67.415146,76.334892 73.635391,80.663422 
	C81.048805,85.822258 89.227623,86.615532 98.471573,85.788689 
	C108.690941,85.867004 118.910316,85.945312 129.897858,86.090515 
	C137.496658,85.703583 145.091675,85.174850 152.695389,84.971138 
	C159.760956,84.781860 166.835800,84.939224 174.855438,85.018326 
	C177.688538,85.018745 180.530579,85.161766 183.352570,84.984886 
	C187.222198,84.742348 191.076645,84.257118 195.370575,83.331955 
	C199.757202,82.931740 204.137054,82.322800 208.532028,82.180321 
	C215.091263,81.967667 221.682800,82.414253 228.221664,81.986069 
	C239.319977,81.259293 250.390564,80.097366 261.467743,79.064056 
	C269.102722,78.351845 276.730835,77.564240 284.358795,76.779350 
	C289.209045,76.280289 294.044159,75.603516 298.903229,75.230331 
	C303.214508,74.899223 307.577301,75.129539 311.867371,74.657654 
	C317.892639,73.994911 323.844879,72.566025 329.877472,72.098892 
	C336.887604,71.556046 341.120636,66.803062 338.025330,62.060410 
	C336.339111,59.476852 334.487640,56.794380 332.116272,54.901028 
	C322.492950,47.217628 313.066528,39.155991 302.733704,32.535046 
	C294.649933,27.355209 285.348236,24.069536 276.567505,19.985659 
	C265.868134,15.009443 254.873215,19.875044 244.001312,19.382250 
	C233.319870,18.898088 222.497559,21.549990 211.734100,22.800331 
	C210.747482,22.914944 209.738708,22.825699 208.741516,22.864653 
	C203.333130,23.075930 197.906662,23.090134 192.521805,23.569580 
	C186.086823,24.142527 179.704681,25.314730 173.268860,25.871141 
	C163.250397,26.737291 153.200516,27.233364 143.174545,28.021214 
	C136.702240,28.529814 130.258713,29.414026 123.784592,29.887836 
	C115.263626,30.511440 106.717499,30.790871 98.196350,31.412310 
	C87.493988,32.192818 76.805954,33.169735 65.500633,34.034969 
	C64.989578,34.312164 64.478523,34.589359 63.367073,35.067375 
	C62.948158,35.118168 62.529243,35.168957 61.592190,34.559608 
	C54.546268,35.448071 47.435474,36.015099 40.493000,37.416153 
	C38.343006,37.850037 34.245373,36.569221 33.995392,41.040638 
	C33.995392,41.040638 34.068111,41.068661 33.305206,41.059414 
	C29.794626,44.245102 29.981565,45.891239 34.530113,48.170097 
	C34.794632,48.382515 34.946072,48.657265 35.018929,49.707485 
	C36.871952,53.719784 39.038651,57.390480 43.999702,58.001953 
	C43.999702,58.001953 44.012440,57.967426 44.190201,58.448444 
	C44.471725,58.627705 44.753254,58.806965 44.998524,59.001625 
	C44.998524,59.001625 45.013599,58.965225 45.192696,59.446712 
	C45.475296,59.625435 45.757900,59.804153 45.999104,60.001396 
	C45.999104,60.001396 46.016644,59.959583 46.201172,60.443069 
	C46.488377,60.618374 46.775578,60.793678 47.003345,60.996582 
	C47.003345,60.996582 47.030647,60.937012 47.202751,61.428997 
	C47.489632,61.608913 47.776512,61.788834 48.003418,61.996250 
M376.705902,203.441467 
	C376.815125,193.002731 376.973633,182.564087 376.992004,172.125183 
	C376.995667,170.042786 376.464050,167.959442 376.082825,165.456238 
	C376.082825,165.456238 376.028442,165.028458 376.119720,164.529922 
	C376.160950,164.366104 376.202148,164.202286 376.746674,163.376770 
	C376.568237,155.574783 376.389801,147.772797 376.089569,139.516312 
	C376.089569,139.516312 375.983002,139.057999 376.043671,138.321503 
	C375.714020,137.209274 375.384369,136.097031 374.931091,134.118652 
	C374.322998,125.511841 373.243866,116.904831 373.247284,108.298264 
	C373.250336,100.614594 372.339386,97.307526 365.302338,95.328033 
	C358.628418,93.450684 351.567383,92.163521 344.658173,92.076416 
	C331.330200,91.908394 317.948822,90.787811 304.635437,92.825745 
	C302.479797,93.155716 300.158752,92.273552 297.957581,92.461121 
	C289.842865,93.152573 281.746521,94.059654 273.642456,94.877464 
	C273.314026,94.910606 272.976959,94.846130 272.644379,94.852203 
	C265.910980,94.975098 259.157776,94.822296 252.449188,95.297676 
	C243.922791,95.901878 235.448563,97.250977 226.921402,97.832787 
	C220.549301,98.267548 214.103973,97.655670 207.736435,98.124153 
	C199.649490,98.719131 191.627853,100.195503 183.541382,100.805367 
	C176.419266,101.342506 169.218811,100.871193 162.103027,101.455185 
	C151.979568,102.286026 141.896942,103.633224 131.806061,104.836922 
	C120.781242,106.152016 109.776840,107.642586 98.744957,108.892738 
	C89.430565,109.948265 83.544472,115.304977 82.102516,124.111160 
	C79.779640,138.297256 78.551964,152.662689 76.088448,167.174500 
	C75.714447,168.696716 75.016457,170.218384 75.013931,171.741211 
	C74.953842,208.014755 74.935616,244.288513 75.051956,280.561768 
	C75.058853,282.710632 76.256355,284.855682 77.036438,287.931061 
	C77.329079,312.505890 77.619209,337.080719 77.917435,361.655487 
	C77.955788,364.816345 77.839638,367.998108 78.181610,371.127991 
	C78.347076,372.642303 79.024605,374.512451 80.126930,375.446655 
	C87.993515,382.113312 95.779922,388.972137 106.552109,392.637390 
	C113.373100,392.490021 120.194084,392.342621 127.475151,392.073486 
	C127.475151,392.073486 127.943298,391.987885 128.833710,392.022491 
	C131.566528,391.660889 134.299362,391.299286 137.481628,391.031189 
	C137.481628,391.031189 137.937103,390.974060 138.499359,390.998962 
	C138.686783,390.990692 138.874191,390.982391 139.685806,391.060669 
	C140.103958,391.032043 140.522095,391.003418 141.500107,390.999542 
	C141.686722,390.991089 141.873337,390.982666 142.514069,391.088898 
	C142.514069,391.088898 142.968445,391.202545 143.181656,391.482758 
	C143.463837,391.383484 143.746017,391.284241 144.726898,390.867523 
	C147.937424,390.290192 151.133011,389.340820 154.361526,389.211060 
	C161.625076,388.919189 168.928818,389.383942 176.171921,388.890503 
	C184.492661,388.323608 192.742874,386.700470 201.064163,386.167175 
	C216.502594,385.177765 231.970245,384.642914 247.426239,383.930023 
	C249.156006,383.850220 250.897873,383.940063 252.619156,383.785034 
	C258.969757,383.213104 265.305542,382.456238 271.662994,381.986664 
	C278.596588,381.474548 285.562317,381.373169 292.488129,380.786713 
	C301.557434,380.018768 310.596710,378.902466 319.657990,378.030518 
	C324.969299,377.519470 330.325562,377.402039 335.610535,376.714783 
	C339.696198,376.183441 343.664337,374.697388 347.752167,374.244415 
	C355.892120,373.342468 364.071808,372.812225 370.897003,367.520538 
	C371.973053,366.686188 373.619446,365.763947 373.772614,364.704590 
	C374.455170,359.983459 375.062073,355.194580 375.021240,350.435974 
	C374.880280,334.014282 374.457153,317.595032 374.739990,300.545227 
	C374.784790,288.715607 374.829620,276.885986 374.866638,264.119019 
	C374.902405,260.951721 374.938202,257.784424 375.048157,254.512054 
	C375.048157,254.512054 374.981018,254.402359 374.978851,253.607559 
	C375.049774,253.083298 375.120728,252.559036 375.641052,251.659424 
	C375.755157,251.097214 375.869263,250.535004 375.999817,250.003693 
	C375.999817,250.003693 375.966339,249.992905 376.616180,249.454330 
	C376.755280,236.048401 376.913513,222.642609 376.997742,209.236328 
	C377.004608,208.145920 376.505280,207.052307 376.119354,205.471832 
	C376.089508,205.306747 376.059631,205.141647 376.088013,204.542374 
	C376.088013,204.542374 376.187408,204.115723 376.705902,203.441467 
z"/>
<path fill="#E8C85A" opacity="1.000000" stroke="none" 
	d="
M395.958984,234.601166 
	C395.550568,233.281509 395.021851,231.537552 395.019592,229.792923 
	C394.970886,192.046021 394.962067,154.299011 395.030884,116.552170 
	C395.034607,114.502930 395.781952,112.455048 396.504517,110.185333 
	C396.903809,120.604446 397.060364,131.244888 397.044128,141.885040 
	C397.003021,168.836761 396.910828,195.788498 396.766724,222.739838 
	C396.746307,226.553192 396.321472,230.364380 395.958984,234.601166 
z"/>
<path fill="#E8C851" opacity="1.000000" stroke="none" 
	d="
M3.033365,98.401840 
	C3.420961,98.565186 3.940170,99.143913 3.938117,99.720787 
	C3.882817,115.263771 3.774055,130.806564 3.430910,146.681702 
	C3.099028,130.948120 3.010545,114.882248 3.033365,98.401840 
z"/>
<path fill="#E6C758" opacity="1.000000" stroke="none" 
	d="
M394.045471,354.653137 
	C393.552338,351.652893 393.084869,348.288300 393.014923,344.915497 
	C392.881927,338.503571 392.906830,332.085602 393.027588,325.673218 
	C393.055908,324.168579 393.727631,322.676086 394.492340,321.073486 
	C394.671082,332.074341 394.460846,343.179718 394.045471,354.653137 
z"/>
<path fill="#E6C65B" opacity="1.000000" stroke="none" 
	d="
M174.351624,408.973572 
	C175.190704,408.257477 176.414688,407.094971 177.660507,407.071106 
	C183.235672,406.964203 188.817047,407.181732 194.706406,407.558777 
	C190.492722,408.244232 185.973297,408.717590 181.442963,409.034454 
	C179.221313,409.189880 176.979324,409.054901 174.351624,408.973572 
z"/>
<path fill="#E5C75C" opacity="1.000000" stroke="none" 
	d="
M3.961858,71.345718 
	C4.285151,79.463181 4.413196,87.952072 4.198657,96.685455 
	C3.582728,90.326561 3.243071,83.724800 3.079705,77.118675 
	C3.035346,75.324928 3.523085,73.518013 3.961858,71.345718 
z"/>
<path fill="#E8C851" opacity="1.000000" stroke="none" 
	d="
M3.089395,258.412842 
	C3.461308,263.355682 3.749541,268.726715 4.019287,274.568390 
	C3.400219,271.211548 2.658906,267.398285 2.268669,263.549438 
	C2.113658,262.020569 2.736828,260.412842 3.089395,258.412842 
z"/>
<path fill="#E8C851" opacity="1.000000" stroke="none" 
	d="
M4.138191,276.362518 
	C4.519493,279.032043 4.781958,282.088409 5.021661,285.592346 
	C1.753550,283.250824 3.204036,279.966583 4.138191,276.362518 
z"/>
<path fill="#E8C851" opacity="1.000000" stroke="none" 
	d="
M4.618440,287.150574 
	C5.300353,288.726257 5.668508,290.476501 6.009464,292.637146 
	C5.423070,291.140076 4.863876,289.232635 4.618440,287.150574 
z"/>
<path fill="#E8C851" opacity="1.000000" stroke="none" 
	d="
M5.812613,295.085571 
	C6.418755,296.077484 6.727849,297.206696 7.002736,298.708710 
	C6.484207,297.795288 5.999886,296.509125 5.812613,295.085571 
z"/>
<path fill="#FFFFFE" opacity="1.000000" stroke="none" 
	d="
M374.973999,254.617111 
	C374.938202,257.784424 374.902405,260.951721 374.646637,264.916809 
	C374.331573,277.534668 374.236511,289.354767 374.141479,301.174835 
	C374.457153,317.595032 374.880280,334.014282 375.021240,350.435974 
	C375.062073,355.194580 374.455170,359.983459 373.772614,364.704590 
	C373.619446,365.763947 371.973053,366.686188 370.897003,367.520538 
	C364.071808,372.812225 355.892120,373.342468 347.752167,374.244415 
	C343.664337,374.697388 339.696198,376.183441 335.610535,376.714783 
	C330.325562,377.402039 324.969299,377.519470 319.657990,378.030518 
	C310.596710,378.902466 301.557434,380.018768 292.488129,380.786713 
	C285.562317,381.373169 278.596588,381.474548 271.662994,381.986664 
	C265.305542,382.456238 258.969757,383.213104 252.619156,383.785034 
	C250.897873,383.940063 249.156006,383.850220 247.426239,383.930023 
	C231.970245,384.642914 216.502594,385.177765 201.064163,386.167175 
	C192.742874,386.700470 184.492661,388.323608 176.171921,388.890503 
	C168.928818,389.383942 161.625076,388.919189 154.361526,389.211060 
	C151.133011,389.340820 147.937424,390.290192 144.111481,390.966736 
	C143.320190,391.111481 143.144318,391.157013 142.968445,391.202545 
	C142.968445,391.202545 142.514069,391.088898 142.210693,390.788574 
	C141.584961,390.650421 141.262619,390.812622 140.940247,390.974792 
	C140.522095,391.003418 140.103958,391.032043 139.296783,390.774109 
	C138.584198,390.649719 138.260651,390.811890 137.937103,390.974060 
	C137.937103,390.974060 137.481628,391.031189 137.046844,390.648407 
	C133.722473,390.839722 130.832886,391.413818 127.943298,391.987915 
	C127.943298,391.987885 127.475151,392.073486 126.833603,392.036560 
	C121.522774,391.992035 116.853493,391.979279 112.184204,391.979126 
	C110.116196,391.979065 108.048195,392.004578 105.980186,392.018463 
	C95.779922,388.972137 87.993515,382.113312 80.126930,375.446655 
	C79.024605,374.512451 78.347076,372.642303 78.181610,371.127991 
	C77.839638,367.998108 77.955788,364.816345 77.917435,361.655487 
	C77.619209,337.080719 77.329079,312.505890 77.045547,287.003784 
	C77.000847,268.364166 76.947052,250.651840 76.959824,232.479507 
	C76.977760,218.705811 76.929131,205.392120 76.944107,191.608597 
	C76.959015,183.076630 76.910316,175.014496 76.861618,166.952362 
	C78.551964,152.662689 79.779640,138.297256 82.102516,124.111160 
	C83.544472,115.304977 89.430565,109.948265 98.744957,108.892738 
	C109.776840,107.642586 120.781242,106.152016 131.806061,104.836922 
	C141.896942,103.633224 151.979568,102.286026 162.103027,101.455185 
	C169.218811,100.871193 176.419266,101.342506 183.541382,100.805367 
	C191.627853,100.195503 199.649490,98.719131 207.736435,98.124153 
	C214.103973,97.655670 220.549301,98.267548 226.921402,97.832787 
	C235.448563,97.250977 243.922791,95.901878 252.449188,95.297676 
	C259.157776,94.822296 265.910980,94.975098 272.644379,94.852203 
	C272.976959,94.846130 273.314026,94.910606 273.642456,94.877464 
	C281.746521,94.059654 289.842865,93.152573 297.957581,92.461121 
	C300.158752,92.273552 302.479797,93.155716 304.635437,92.825745 
	C317.948822,90.787811 331.330200,91.908394 344.658173,92.076416 
	C351.567383,92.163521 358.628418,93.450684 365.302338,95.328033 
	C372.339386,97.307526 373.250336,100.614594 373.247284,108.298264 
	C373.243866,116.904831 374.322998,125.511841 374.910950,134.922913 
	C375.254883,136.837448 375.618958,137.947723 375.983002,139.057999 
	C375.983002,139.057999 376.089569,139.516312 376.044617,140.204681 
	C376.080872,148.608200 376.162140,156.323318 376.243408,164.038452 
	C376.202148,164.202286 376.160950,164.366104 375.661926,164.937012 
	C375.123322,177.925781 375.026978,190.507446 375.007599,203.089233 
	C375.006622,203.717819 375.673706,204.347412 376.029724,204.976547 
	C376.059631,205.141647 376.089508,205.306747 376.068054,206.177063 
	C375.999939,221.252502 375.983124,235.622711 375.966339,249.992905 
	C375.966339,249.992905 375.999817,250.003693 375.689270,250.104904 
	C375.316345,250.815659 375.253998,251.425217 375.191681,252.034760 
	C375.120728,252.559036 375.049774,253.083298 374.884094,253.970734 
	C374.789307,254.333908 374.736664,254.589722 374.736664,254.589722 
	C374.736664,254.589722 374.973969,254.617111 374.973999,254.617111 
M155.996109,221.999283 
	C155.996109,221.999283 155.935699,222.022476 155.940262,222.953857 
	C156.043213,227.978394 156.146149,233.002945 156.114563,238.545593 
	C156.081894,238.721008 156.049210,238.896423 155.177521,239.343658 
	C155.111237,251.923019 155.030136,264.502380 155.023376,277.081757 
	C155.023056,277.696411 155.673752,278.311432 156.117661,279.451416 
	C156.162964,279.623505 156.208282,279.795624 156.032135,280.847107 
	C155.983582,283.547882 155.935013,286.248688 155.232925,289.474213 
	C154.532944,299.387421 153.817276,309.299561 153.139008,319.214233 
	C152.747696,324.934418 151.140976,329.988586 146.711823,334.078613 
	C143.881195,336.692505 141.652405,339.958130 139.438080,342.593262 
	C143.545700,342.593262 147.638885,342.919159 151.656830,342.508606 
	C156.402908,342.023682 161.055847,340.658691 165.799500,340.111664 
	C173.687134,339.202087 181.631363,338.777283 189.513275,337.828552 
	C191.318787,337.611237 192.967819,336.094086 194.688858,335.175110 
	C192.900620,334.090118 191.131119,332.971802 189.308716,331.947571 
	C188.933289,331.736603 188.315552,331.997284 187.885605,331.836761 
	C183.610550,330.240662 179.351501,328.601746 175.066803,326.138885 
	C174.712387,324.405365 174.223465,322.686920 174.027222,320.935669 
	C173.246964,313.972565 172.558044,306.999207 172.022812,299.096527 
	C171.970642,287.391693 171.918472,275.686829 172.071075,263.222839 
	C172.313324,261.924866 172.698059,260.635223 172.774353,259.327576 
	C173.219772,251.693649 173.336182,244.030777 174.068710,236.426331 
	C174.695816,229.916306 176.000961,223.471603 176.999390,216.999390 
	C176.999390,216.999390 176.998871,217.005142 177.705338,216.910919 
	C180.128693,216.618210 182.552063,216.325485 184.999420,215.999390 
	C184.999420,215.999390 184.967239,216.025482 185.060791,216.697327 
	C186.684570,218.183426 188.308350,219.669525 190.183395,221.786453 
	C210.208054,250.163849 230.232697,278.541229 250.240311,307.550140 
	C250.845078,307.971924 251.449844,308.393707 252.169250,309.353760 
	C252.232162,309.526093 252.295059,309.698395 252.163757,310.512451 
	C252.783188,310.999634 253.402618,311.486847 254.000610,312.000824 
	C254.000610,312.000824 254.027084,311.977203 254.045868,312.716949 
	C259.308533,320.720001 264.571228,328.723022 270.784302,336.967224 
	C280.368805,336.983734 289.953552,337.034729 299.537506,336.969788 
	C300.643097,336.962311 301.744324,336.309448 303.204895,335.235413 
	C303.147919,331.814819 303.090973,328.394257 302.934479,324.325317 
	C302.973053,323.891266 303.011627,323.457214 303.762848,322.539734 
	C303.809021,314.362183 303.855194,306.184662 304.081787,297.189117 
	C304.364380,282.787323 304.646942,268.385529 305.041656,253.148209 
	C305.300629,242.110428 305.559631,231.072632 306.074554,219.228271 
	C306.343079,210.471939 306.611603,201.715591 306.952362,192.050003 
	C307.596100,182.327942 308.432373,172.612671 308.776337,162.880020 
	C308.892670,159.588882 310.061646,157.630417 312.748718,156.107971 
	C316.267303,154.114441 319.700562,151.970413 323.395844,149.756104 
	C317.989624,145.754013 283.000397,147.964523 273.808685,152.701965 
	C277.740295,156.219391 281.483673,159.568390 285.133057,163.630035 
	C286.755524,166.423553 288.378021,169.217087 290.001312,171.998123 
	C290.001312,171.998123 289.988892,171.996292 289.936371,172.671829 
	C290.285767,174.124084 290.635162,175.576355 291.048828,177.679596 
	C291.005493,178.111786 290.962128,178.543961 290.260254,179.383881 
	C290.821320,182.541901 291.789734,185.690018 291.866791,188.859802 
	C292.094421,198.219986 291.949127,207.588913 292.024017,216.953812 
	C292.029510,217.644928 292.627289,218.331299 293.061554,219.669250 
	C293.022614,220.105133 292.983643,220.541031 292.279358,221.374069 
	C291.930664,225.848343 291.372681,230.319489 291.305756,234.797974 
	C291.259949,237.863419 291.898224,240.939087 292.085846,244.461945 
	C292.085846,244.461945 291.954529,244.917816 291.289703,245.198837 
	C290.865295,248.830780 290.440857,252.462723 289.701508,256.776093 
	C289.307495,258.162201 289.224548,259.759674 288.455780,260.891144 
	C286.774261,263.366058 285.127258,266.394348 282.682373,267.578766 
	C281.594177,268.105957 278.589417,264.751373 276.496918,263.104797 
	C275.110809,262.014099 273.515991,261.035614 272.502197,259.650085 
	C266.555267,251.522842 260.497284,243.458801 254.947662,235.062210 
	C238.101303,209.573654 221.499100,183.923767 204.679153,158.417587 
	C203.733414,156.983429 201.707108,155.408752 200.147461,155.370285 
	C189.660049,155.111633 179.160843,155.142914 168.670151,155.335098 
	C165.946762,155.384995 163.125717,157.114975 160.547256,156.734238 
	C153.144348,155.641083 146.852554,158.343094 140.716370,161.656601 
	C139.702637,162.204010 139.089310,164.458130 139.244522,165.814362 
	C139.327164,166.536438 141.444992,167.040497 142.657333,167.615250 
	C145.154205,168.798965 149.263428,169.421478 149.876572,171.233444 
	C152.186539,178.059875 153.970825,185.201279 154.786636,192.357574 
	C155.598679,199.480698 155.010880,206.763397 154.836014,214.827469 
	C155.209396,217.235031 155.582764,219.642609 155.996109,221.999283 
z"/>
<path fill="#FEFEFD" opacity="1.000000" stroke="none" 
	d="
M97.846024,85.187119 
	C89.227623,86.615532 81.048805,85.822258 73.635391,80.663422 
	C67.415146,76.334892 61.088787,72.158875 54.866798,67.832794 
	C53.989246,67.222641 53.437897,66.143333 52.321007,64.788132 
	C50.955006,63.837475 50.003559,63.379868 49.052109,62.922260 
	C49.052109,62.922260 48.999352,62.981716 48.968323,62.711510 
	C48.635201,62.272972 48.333111,62.104649 48.031021,61.936321 
	C48.031021,61.936321 48.003418,61.996250 47.959900,61.727394 
	C47.621136,61.284698 47.325890,61.110855 47.030647,60.937012 
	C47.030647,60.937012 47.003345,60.996582 46.957138,60.729568 
	C46.612831,60.294899 46.314739,60.127243 46.016644,59.959583 
	C46.016644,59.959583 45.999104,60.001396 45.944130,59.740967 
	C45.597301,59.308762 45.305450,59.136993 45.013599,58.965225 
	C45.013599,58.965225 44.998524,59.001625 44.942726,58.742378 
	C44.595432,58.311230 44.303936,58.139328 44.012440,57.967426 
	C44.012440,57.967426 43.999702,58.001953 44.001350,57.641312 
	C40.996811,54.518562 37.990627,51.756454 34.984440,48.994347 
	C34.946072,48.657265 34.794632,48.382515 34.261780,47.704346 
	C34.018333,45.181946 34.043221,43.125305 34.068108,41.068661 
	C34.068111,41.068661 33.995392,41.040638 34.418465,41.069244 
	C36.867203,40.424667 38.848969,39.529404 40.926525,39.118748 
	C47.969517,37.726608 55.046394,36.505932 62.110329,35.219749 
	C62.529243,35.168957 62.948158,35.118168 63.981937,35.034576 
	C65.101776,34.688480 65.606758,34.375187 66.111732,34.061890 
	C76.805954,33.169735 87.493988,32.192818 98.196350,31.412310 
	C106.717499,30.790871 115.263626,30.511440 123.784592,29.887836 
	C130.258713,29.414026 136.702240,28.529814 143.174545,28.021214 
	C153.200516,27.233364 163.250397,26.737291 173.268860,25.871141 
	C179.704681,25.314730 186.086823,24.142527 192.521805,23.569580 
	C197.906662,23.090134 203.333130,23.075930 208.741516,22.864653 
	C209.738708,22.825699 210.747482,22.914944 211.734100,22.800331 
	C222.497559,21.549990 233.319870,18.898088 244.001312,19.382250 
	C254.873215,19.875044 265.868134,15.009443 276.567505,19.985659 
	C285.348236,24.069536 294.649933,27.355209 302.733704,32.535046 
	C313.066528,39.155991 322.492950,47.217628 332.116272,54.901028 
	C334.487640,56.794380 336.339111,59.476852 338.025330,62.060410 
	C341.120636,66.803062 336.887604,71.556046 329.877472,72.098892 
	C323.844879,72.566025 317.892639,73.994911 311.867371,74.657654 
	C307.577301,75.129539 303.214508,74.899223 298.903229,75.230331 
	C294.044159,75.603516 289.209045,76.280289 284.358795,76.779350 
	C276.730835,77.564240 269.102722,78.351845 261.467743,79.064056 
	C250.390564,80.097366 239.319977,81.259293 228.221664,81.986069 
	C221.682800,82.414253 215.091263,81.967667 208.532028,82.180321 
	C204.137054,82.322800 199.757202,82.931740 194.745132,83.616661 
	C190.623337,83.596657 187.109390,82.926254 183.635742,83.093361 
	C180.370560,83.250435 177.147919,84.291718 173.906570,84.943962 
	C166.835800,84.939224 159.760956,84.781860 152.695389,84.971138 
	C145.091675,85.174850 137.496658,85.703583 129.294647,85.665802 
	C118.409645,85.223091 108.127831,85.205101 97.846024,85.187119 
z"/>
<path fill="#E8C752" opacity="1.000000" stroke="none" 
	d="
M76.475037,167.063431 
	C76.910316,175.014496 76.959015,183.076630 76.657394,191.900482 
	C76.214600,205.523193 76.111053,218.384140 76.066765,231.245285 
	C76.064819,231.809082 76.605392,232.374725 76.893257,232.939514 
	C76.947052,250.651840 77.000847,268.364166 76.977234,286.539490 
	C76.256355,284.855682 75.058853,282.710632 75.051956,280.561768 
	C74.935616,244.288513 74.953842,208.014755 75.013931,171.741211 
	C75.016457,170.218384 75.714447,168.696716 76.475037,167.063431 
z"/>
<path fill="#ECC73C" opacity="1.000000" stroke="none" 
	d="
M61.851257,34.889679 
	C55.046394,36.505932 47.969517,37.726608 40.926525,39.118748 
	C38.848969,39.529404 36.867203,40.424667 34.453762,41.090878 
	C34.245373,36.569221 38.343006,37.850037 40.493000,37.416153 
	C47.435474,36.015099 54.546268,35.448071 61.851257,34.889679 
z"/>
<path fill="#E8C752" opacity="1.000000" stroke="none" 
	d="
M376.291260,249.723618 
	C375.983124,235.622711 375.999939,221.252502 376.128937,206.421249 
	C376.505280,207.052307 377.004608,208.145920 376.997742,209.236328 
	C376.913513,222.642609 376.755280,236.048401 376.291260,249.723618 
z"/>
<path fill="#76621B" opacity="1.000000" stroke="none" 
	d="
M376.058868,204.759460 
	C375.673706,204.347412 375.006622,203.717819 375.007599,203.089233 
	C375.026978,190.507446 375.123322,177.925781 375.616272,165.186279 
	C376.028442,165.028458 376.082825,165.456238 376.067017,166.146576 
	C376.096649,179.263168 376.142029,191.689453 376.187408,204.115723 
	C376.187408,204.115723 376.088013,204.542374 376.058868,204.759460 
z"/>
<path fill="#E8C752" opacity="1.000000" stroke="none" 
	d="
M376.446655,203.778595 
	C376.142029,191.689453 376.096649,179.263168 376.115265,166.356720 
	C376.464050,167.959442 376.995667,170.042786 376.992004,172.125183 
	C376.973633,182.564087 376.815125,193.002731 376.446655,203.778595 
z"/>
<path fill="#BCB080" opacity="1.000000" stroke="none" 
	d="
M374.440735,300.860046 
	C374.236511,289.354767 374.331573,277.534668 374.650543,265.385498 
	C374.829620,276.885986 374.784790,288.715607 374.440735,300.860046 
z"/>
<path fill="#E9C85D" opacity="1.000000" stroke="none" 
	d="
M174.381012,84.981140 
	C177.147919,84.291718 180.370560,83.250435 183.635742,83.093361 
	C187.109390,82.926254 190.623337,83.596657 194.528641,83.888634 
	C191.076645,84.257118 187.222198,84.742348 183.352570,84.984886 
	C180.530579,85.161766 177.688538,85.018745 174.381012,84.981140 
z"/>
<path fill="#ECC73C" opacity="1.000000" stroke="none" 
	d="
M35.001686,49.350914 
	C37.990627,51.756454 40.996811,54.518562 44.017273,57.632034 
	C39.038651,57.390480 36.871952,53.719784 35.001686,49.350914 
z"/>
<path fill="#B6A45D" opacity="1.000000" stroke="none" 
	d="
M98.158798,85.487900 
	C108.127831,85.205101 118.409645,85.223091 128.910568,85.632355 
	C118.910316,85.945312 108.690941,85.867004 98.158798,85.487900 
z"/>
<path fill="#ECC847" opacity="1.000000" stroke="none" 
	d="
M106.266144,392.327942 
	C108.048195,392.004578 110.116196,391.979065 112.184204,391.979126 
	C116.853493,391.979279 121.522774,391.992035 126.603569,392.097473 
	C120.194084,392.342621 113.373100,392.490021 106.266144,392.327942 
z"/>
<path fill="#E8C752" opacity="1.000000" stroke="none" 
	d="
M376.495056,163.707611 
	C376.162140,156.323318 376.080872,148.608200 376.105499,140.431946 
	C376.389801,147.772797 376.568237,155.574783 376.495056,163.707611 
z"/>
<path fill="#ECC847" opacity="1.000000" stroke="none" 
	d="
M128.388504,392.005188 
	C130.832886,391.413818 133.722473,390.839722 136.822113,390.601654 
	C134.299362,391.299286 131.566528,391.660889 128.388504,392.005188 
z"/>
<path fill="#ECC73C" opacity="1.000000" stroke="none" 
	d="
M33.686657,41.064037 
	C34.043221,43.125305 34.018333,45.181946 34.042046,47.607216 
	C29.981565,45.891239 29.794626,44.245102 33.686657,41.064037 
z"/>
<path fill="#ECC73C" opacity="1.000000" stroke="none" 
	d="
M49.080997,63.284275 
	C50.003559,63.379868 50.955006,63.837475 52.013054,64.614807 
	C51.116402,64.505112 50.113144,64.075699 49.080997,63.284275 
z"/>
<path fill="#E8C752" opacity="1.000000" stroke="none" 
	d="
M376.013336,138.689758 
	C375.618958,137.947723 375.254883,136.837448 374.972778,135.355988 
	C375.384369,136.097031 375.714020,137.209274 376.013336,138.689758 
z"/>
<path fill="#ECC73C" opacity="1.000000" stroke="none" 
	d="
M65.806183,34.048431 
	C65.606758,34.375187 65.101776,34.688480 64.282135,34.934166 
	C64.478523,34.589359 64.989578,34.312164 65.806183,34.048431 
z"/>
<path fill="#E8C752" opacity="1.000000" stroke="none" 
	d="
M375.416382,251.847092 
	C375.253998,251.425217 375.316345,250.815659 375.681030,250.089447 
	C375.869263,250.535004 375.755157,251.097214 375.416382,251.847092 
z"/>
<path fill="#ECC73C" opacity="1.000000" stroke="none" 
	d="
M46.108910,60.201324 
	C46.314739,60.127243 46.612831,60.294899 46.986855,60.715771 
	C46.775578,60.793678 46.488377,60.618374 46.108910,60.201324 
z"/>
<path fill="#ECC73C" opacity="1.000000" stroke="none" 
	d="
M44.101318,58.207935 
	C44.303936,58.139328 44.595432,58.311230 44.960854,58.734676 
	C44.753254,58.806965 44.471725,58.627705 44.101318,58.207935 
z"/>
<path fill="#ECC73C" opacity="1.000000" stroke="none" 
	d="
M48.118477,62.182556 
	C48.333111,62.104649 48.635201,62.272972 49.006210,62.699509 
	C48.785393,62.781410 48.495663,62.605099 48.118477,62.182556 
z"/>
<path fill="#ECC73C" opacity="1.000000" stroke="none" 
	d="
M47.116699,61.183006 
	C47.325890,61.110855 47.621136,61.284698 47.989883,61.713646 
	C47.776512,61.788834 47.489632,61.608913 47.116699,61.183006 
z"/>
<path fill="#BCB080" opacity="1.000000" stroke="none" 
	d="
M375.011047,254.564575 
	C374.973969,254.617111 374.736664,254.589722 374.736664,254.589722 
	C374.736664,254.589722 374.789307,254.333908 374.885162,254.368134 
	C374.981018,254.402359 375.048157,254.512054 375.011047,254.564575 
z"/>
<path fill="#ECC73C" opacity="1.000000" stroke="none" 
	d="
M45.103149,59.205971 
	C45.305450,59.136993 45.597301,59.308762 45.964828,59.731705 
	C45.757900,59.804153 45.475296,59.625435 45.103149,59.205971 
z"/>
<path fill="#ECC847" opacity="1.000000" stroke="none" 
	d="
M138.218231,390.986511 
	C138.260651,390.811890 138.584198,390.649719 138.984680,390.730835 
	C138.874191,390.982391 138.686783,390.990692 138.218231,390.986511 
z"/>
<path fill="#ECC847" opacity="1.000000" stroke="none" 
	d="
M141.220184,390.987183 
	C141.262619,390.812622 141.584961,390.650421 141.983643,390.731232 
	C141.873337,390.982666 141.686722,390.991089 141.220184,390.987183 
z"/>
<path fill="#ECC847" opacity="1.000000" stroke="none" 
	d="
M143.075043,391.342651 
	C143.144318,391.157013 143.320190,391.111481 143.762146,391.125458 
	C143.746017,391.284241 143.463837,391.383484 143.075043,391.342651 
z"/>
<path fill="#FCC913" opacity="1.000000" stroke="none" 
	d="
M155.036896,213.976135 
	C155.010880,206.763397 155.598679,199.480698 154.786636,192.357574 
	C153.970825,185.201279 152.186539,178.059875 149.876572,171.233444 
	C149.263428,169.421478 145.154205,168.798965 142.657333,167.615250 
	C141.444992,167.040497 139.327164,166.536438 139.244522,165.814362 
	C139.089310,164.458130 139.702637,162.204010 140.716370,161.656601 
	C146.852554,158.343094 153.144348,155.641083 160.547256,156.734238 
	C163.125717,157.114975 165.946762,155.384995 168.670151,155.335098 
	C179.160843,155.142914 189.660049,155.111633 200.147461,155.370285 
	C201.707108,155.408752 203.733414,156.983429 204.679153,158.417587 
	C221.499100,183.923767 238.101303,209.573654 254.947662,235.062210 
	C260.497284,243.458801 266.555267,251.522842 272.502197,259.650085 
	C273.515991,261.035614 275.110809,262.014099 276.496918,263.104797 
	C278.589417,264.751373 281.594177,268.105957 282.682373,267.578766 
	C285.127258,266.394348 286.774261,263.366058 288.455780,260.891144 
	C289.224548,259.759674 289.307495,258.162201 290.159668,256.192413 
	C291.063385,252.045105 291.508972,248.481461 291.954529,244.917816 
	C291.954529,244.917816 292.085846,244.461945 292.409973,243.918182 
	C293.141083,239.279587 293.805328,235.189102 293.874817,231.088531 
	C293.931824,227.724213 293.281494,224.347900 292.944672,220.976913 
	C292.983643,220.541031 293.022614,220.105133 293.311462,219.057220 
	C293.319824,207.603561 293.179108,196.757996 292.756561,185.923447 
	C292.665436,183.587341 291.558075,181.290863 290.918793,178.976151 
	C290.962128,178.543961 291.005493,178.111786 291.255859,177.148911 
	C290.971558,175.077576 290.480225,173.536942 289.988892,171.996292 
	C289.988892,171.996292 290.001312,171.998123 290.019714,171.604797 
	C289.997101,167.540314 289.031342,164.405579 285.227020,162.917389 
	C281.483673,159.568390 277.740295,156.219391 273.808685,152.701965 
	C283.000397,147.964523 317.989624,145.754013 323.395844,149.756104 
	C319.700562,151.970413 316.267303,154.114441 312.748718,156.107971 
	C310.061646,157.630417 308.892670,159.588882 308.776337,162.880020 
	C308.432373,172.612671 307.596100,182.327942 306.528687,192.614395 
	C306.009521,202.130814 305.914062,211.082825 305.818604,220.034851 
	C305.559631,231.072632 305.300629,242.110428 304.653503,253.777328 
	C303.836731,256.277649 303.053070,258.145752 303.036865,260.020508 
	C302.927460,272.679504 302.980560,285.339905 302.697449,298.303345 
	C302.286346,302.721558 301.977661,306.840912 302.082977,310.949677 
	C302.186249,314.979767 302.710602,318.999115 303.050201,323.023163 
	C303.011627,323.457214 302.973053,323.891266 302.682709,324.932739 
	C302.297394,326.850281 301.901917,328.196686 302.077759,329.463837 
	C302.687347,333.856232 301.033966,335.306366 296.556549,335.060883 
	C289.583710,334.678558 282.570160,334.817078 275.582397,335.023621 
	C272.224457,335.122894 269.867737,334.088379 268.076904,331.235565 
	C264.478607,325.503479 260.784821,319.828888 256.998108,314.219910 
	C256.341370,313.247101 255.033966,312.713593 254.027084,311.977203 
	C254.027084,311.977203 254.000610,312.000824 253.991974,311.687256 
	C253.441559,310.872681 252.899765,310.371704 252.357971,309.870728 
	C252.295059,309.698395 252.232162,309.526093 252.026367,308.829712 
	C251.341431,307.843323 250.799393,307.380981 250.257355,306.918610 
	C230.232697,278.541229 210.208054,250.163849 190.059174,221.096954 
	C188.279068,218.946777 186.623154,217.486130 184.967239,216.025482 
	C184.967239,216.025482 184.999420,215.999390 184.977524,215.636658 
	C181.531250,211.580078 179.157944,212.096466 176.998871,217.005142 
	C176.998871,217.005142 176.999390,216.999390 176.670074,217.149872 
	C175.578583,219.095078 174.319183,220.839798 174.132935,222.692413 
	C172.648697,237.455490 170.684708,252.217133 170.210449,267.022217 
	C169.701523,282.909424 170.391403,298.855652 171.142456,314.748505 
	C171.337555,318.876923 173.713608,322.902252 175.087921,326.974945 
	C179.351501,328.601746 183.610550,330.240662 187.885605,331.836761 
	C188.315552,331.997284 188.933289,331.736603 189.308716,331.947571 
	C191.131119,332.971802 192.900620,334.090118 194.688858,335.175110 
	C192.967819,336.094086 191.318787,337.611237 189.513275,337.828552 
	C181.631363,338.777283 173.687134,339.202087 165.799500,340.111664 
	C161.055847,340.658691 156.402908,342.023682 151.656830,342.508606 
	C147.638885,342.919159 143.545700,342.593262 139.438080,342.593262 
	C141.652405,339.958130 143.881195,336.692505 146.711823,334.078613 
	C151.140976,329.988586 152.747696,324.934418 153.139008,319.214233 
	C153.817276,309.299561 154.532944,299.387421 155.885117,288.982361 
	C156.442734,285.649567 156.348160,282.808655 156.253601,279.967712 
	C156.208282,279.795624 156.162964,279.623505 156.082886,278.990845 
	C156.048126,278.530304 156.175140,278.154175 156.435547,277.811707 
	C156.807999,267.015778 156.969604,256.562439 156.990219,246.108856 
	C156.994324,244.023056 156.459915,241.936188 156.109619,239.660355 
	C156.045425,239.470886 156.016525,239.071838 156.016525,239.071838 
	C156.049210,238.896423 156.081894,238.721008 156.431427,237.957230 
	C156.477432,232.253403 156.206573,227.137939 155.935699,222.022476 
	C155.935699,222.022476 155.996109,221.999283 156.001923,221.592377 
	C155.684128,218.782364 155.360504,216.379242 155.036896,213.976135 
z"/>
<path fill="#EDC745" opacity="1.000000" stroke="none" 
	d="
M175.077362,326.556915 
	C173.713608,322.902252 171.337555,318.876923 171.142456,314.748505 
	C170.391403,298.855652 169.701523,282.909424 170.210449,267.022217 
	C170.684708,252.217133 172.648697,237.455490 174.132935,222.692413 
	C174.319183,220.839798 175.578583,219.095078 176.673492,217.149170 
	C176.000961,223.471603 174.695816,229.916306 174.068710,236.426331 
	C173.336182,244.030777 173.219772,251.693649 172.774353,259.327576 
	C172.698059,260.635223 172.313324,261.924866 171.603729,263.833557 
	C171.087219,275.268250 171.014740,286.092285 171.026474,296.916199 
	C171.027603,297.954315 171.553162,298.991852 171.835281,300.029663 
	C172.558044,306.999207 173.246964,313.972565 174.027222,320.935669 
	C174.223465,322.686920 174.712387,324.405365 175.077362,326.556915 
z"/>
<path fill="#ECC74A" opacity="1.000000" stroke="none" 
	d="
M254.036469,312.347076 
	C255.033966,312.713593 256.341370,313.247101 256.998108,314.219910 
	C260.784821,319.828888 264.478607,325.503479 268.076904,331.235565 
	C269.867737,334.088379 272.224457,335.122894 275.582397,335.023621 
	C282.570160,334.817078 289.583710,334.678558 296.556549,335.060883 
	C301.033966,335.306366 302.687347,333.856232 302.077759,329.463837 
	C301.901917,328.196686 302.297394,326.850281 302.732483,325.256927 
	C303.090973,328.394257 303.147919,331.814819 302.570923,335.621765 
	C297.795837,336.006805 293.652557,335.918976 289.514160,336.023865 
	C282.952362,336.190216 276.393829,336.485413 269.833893,336.726074 
	C264.571228,328.723022 259.308533,320.720001 254.036469,312.347076 
z"/>
<path fill="#E9C85A" opacity="1.000000" stroke="none" 
	d="
M302.981079,297.999847 
	C302.980560,285.339905 302.927460,272.679504 303.036865,260.020508 
	C303.053070,258.145752 303.836731,256.277649 304.597443,254.195099 
	C304.646942,268.385529 304.364380,282.787323 303.761597,297.595093 
	C303.441376,298.001099 302.981079,297.999847 302.981079,297.999847 
z"/>
<path fill="#E9C54B" opacity="1.000000" stroke="none" 
	d="
M290.589539,179.180023 
	C291.558075,181.290863 292.665436,183.587341 292.756561,185.923447 
	C293.179108,196.757996 293.319824,207.603561 293.255554,218.732529 
	C292.627289,218.331299 292.029510,217.644928 292.024017,216.953812 
	C291.949127,207.588913 292.094421,198.219986 291.866791,188.859802 
	C291.789734,185.690018 290.821320,182.541901 290.589539,179.180023 
z"/>
<path fill="#E8C85A" opacity="1.000000" stroke="none" 
	d="
M305.946594,219.631561 
	C305.914062,211.082825 306.009521,202.130814 306.492554,193.069031 
	C306.611603,201.715591 306.343079,210.471939 305.946594,219.631561 
z"/>
<path fill="#ECC74A" opacity="1.000000" stroke="none" 
	d="
M302.697449,298.303345 
	C302.981079,297.999847 303.441376,298.001099 303.671387,298.004089 
	C303.855194,306.184662 303.809021,314.362183 303.406525,322.781433 
	C302.710602,318.999115 302.186249,314.979767 302.082977,310.949677 
	C301.977661,306.840912 302.286346,302.721558 302.697449,298.303345 
z"/>
<path fill="#B09E56" opacity="1.000000" stroke="none" 
	d="
M76.959824,232.479507 
	C76.605392,232.374725 76.064819,231.809082 76.066765,231.245285 
	C76.111053,218.384140 76.214600,205.523193 76.593781,192.370331 
	C76.929131,205.392120 76.977760,218.705811 76.959824,232.479507 
z"/>
<path fill="#3B2700" opacity="1.000000" stroke="none" 
	d="
M156.175140,278.154175 
	C156.175140,278.154175 156.048126,278.530304 156.034714,278.728271 
	C155.673752,278.311432 155.023056,277.696411 155.023376,277.081757 
	C155.030136,264.502380 155.111237,251.923019 155.597015,239.207748 
	C156.016525,239.071838 156.045425,239.470886 156.042480,240.142990 
	C156.084747,253.261459 156.129944,265.707825 156.175140,278.154175 
z"/>
<path fill="#E9C54B" opacity="1.000000" stroke="none" 
	d="
M292.612000,221.175491 
	C293.281494,224.347900 293.931824,227.724213 293.874817,231.088531 
	C293.805328,235.189102 293.141083,239.279587 292.482391,243.692307 
	C291.898224,240.939087 291.259949,237.863419 291.305756,234.797974 
	C291.372681,230.319489 291.930664,225.848343 292.612000,221.175491 
z"/>
<path fill="#2A1C00" opacity="1.000000" stroke="none" 
	d="
M171.929047,299.563110 
	C171.553162,298.991852 171.027603,297.954315 171.026474,296.916199 
	C171.014740,286.092285 171.087219,275.268250 171.501343,264.213135 
	C171.918472,275.686829 171.970642,287.391693 171.929047,299.563110 
z"/>
<path fill="#6B5712" opacity="1.000000" stroke="none" 
	d="
M270.309082,336.846619 
	C276.393829,336.485413 282.952362,336.190216 289.514160,336.023865 
	C293.652557,335.918976 297.795837,336.006805 302.392273,335.981995 
	C301.744324,336.309448 300.643097,336.962311 299.537506,336.969788 
	C289.953552,337.034729 280.368805,336.983734 270.309082,336.846619 
z"/>
<path fill="#E9C54B" opacity="1.000000" stroke="none" 
	d="
M291.622131,245.058319 
	C291.508972,248.481461 291.063385,252.045105 290.317139,255.851715 
	C290.440857,252.462723 290.865295,248.830780 291.622131,245.058319 
z"/>
<path fill="#E9C54B" opacity="1.000000" stroke="none" 
	d="
M285.180054,163.273712 
	C289.031342,164.405579 289.997101,167.540314 290.019287,171.611023 
	C288.378021,169.217087 286.755524,166.423553 285.180054,163.273712 
z"/>
<path fill="#EDC745" opacity="1.000000" stroke="none" 
	d="
M177.352112,216.958038 
	C179.157944,212.096466 181.531250,211.580078 184.965515,215.653351 
	C182.552063,216.325485 180.128693,216.618210 177.352112,216.958038 
z"/>
<path fill="#EAC751" opacity="1.000000" stroke="none" 
	d="
M155.937988,222.488159 
	C156.206573,227.137939 156.477432,232.253403 156.498688,237.698181 
	C156.146149,233.002945 156.043213,227.978394 155.937988,222.488159 
z"/>
<path fill="#EDC745" opacity="1.000000" stroke="none" 
	d="
M185.014008,216.361404 
	C186.623154,217.486130 188.279068,218.946777 189.933548,220.781540 
	C188.308350,219.669525 186.684570,218.183426 185.014008,216.361404 
z"/>
<path fill="#E9C54B" opacity="1.000000" stroke="none" 
	d="
M289.962646,172.334061 
	C290.480225,173.536942 290.971558,175.077576 291.223724,176.823425 
	C290.635162,175.576355 290.285767,174.124084 289.962646,172.334061 
z"/>
<path fill="#EAC751" opacity="1.000000" stroke="none" 
	d="
M156.142868,280.407410 
	C156.348160,282.808655 156.442734,285.649567 156.211884,288.719971 
	C155.935013,286.248688 155.983582,283.547882 156.142868,280.407410 
z"/>
<path fill="#EAC751" opacity="1.000000" stroke="none" 
	d="
M154.936462,214.401794 
	C155.360504,216.379242 155.684128,218.782364 155.981934,221.617828 
	C155.582764,219.642609 155.209396,217.235031 154.936462,214.401794 
z"/>
<path fill="#ECC74A" opacity="1.000000" stroke="none" 
	d="
M252.260864,310.191589 
	C252.899765,310.371704 253.441559,310.872681 254.002686,311.673828 
	C253.402618,311.486847 252.783188,310.999634 252.260864,310.191589 
z"/>
<path fill="#ECC74A" opacity="1.000000" stroke="none" 
	d="
M250.248840,307.234375 
	C250.799393,307.380981 251.341431,307.843323 251.969040,308.560577 
	C251.449844,308.393707 250.845078,307.971924 250.248840,307.234375 
z"/>
<path fill="#EAC751" opacity="1.000000" stroke="none" 
	d="
M156.435547,277.811707 
	C156.129944,265.707825 156.084747,253.261459 156.106689,240.332458 
	C156.459915,241.936188 156.994324,244.023056 156.990219,246.108856 
	C156.969604,256.562439 156.807999,267.015778 156.435547,277.811707 
z"/>
</svg>