<?xml version="1.0" standalone="no"?>
<!DOCTYPE svg PUBLIC "-//W3C//DTD SVG 20010904//EN"
 "http://www.w3.org/TR/2001/REC-SVG-20010904/DTD/svg10.dtd">
<svg version="1.0" xmlns="http://www.w3.org/2000/svg"
 width="100.000000pt" height="100.000000pt" viewBox="0 0 100.000000 100.000000"
 preserveAspectRatio="xMidYMid meet">

<g transform="translate(0.000000,100.000000) scale(0.100000,-0.100000)"
fill="#000000" stroke="none">
<path d="M535 993 c-27 -2 -153 -12 -279 -22 -199 -15 -230 -20 -242 -36 -11
-15 -14 -86 -14 -349 0 -378 -10 -331 105 -480 37 -48 78 -92 90 -98 22 -10
698 26 731 39 9 3 20 17 25 30 5 13 9 183 9 377 l0 353 -22 20 c-13 11 -70 53
-127 94 -100 70 -107 73 -165 75 -34 1 -83 -1 -111 -3z m175 -64 c60 -37 112
-81 103 -90 -11 -10 -581 -44 -613 -36 -14 3 -47 26 -75 51 l-50 44 28 7 c28
7 441 41 527 44 30 1 57 -6 80 -20z m170 -159 c13 -8 15 -55 15 -324 0 -238
-3 -318 -12 -327 -9 -9 -105 -19 -300 -30 -367 -23 -349 -23 -373 1 -19 19
-20 33 -20 319 0 259 2 302 16 315 8 9 23 16 32 17 9 0 141 9 292 18 346 23
332 22 350 11z"/>
<path d="M683 653 c-29 -3 -43 -9 -43 -19 0 -8 9 -14 19 -14 10 0 22 -7 25
-16 9 -24 7 -227 -3 -242 -6 -10 -36 30 -102 132 l-94 146 -45 -1 c-100 -1
-166 -28 -105 -43 l25 -6 0 -190 0 -190 -25 -12 c-14 -6 -25 -15 -25 -20 0 -7
128 -2 158 8 22 6 13 21 -18 28 l-30 6 0 134 c0 74 4 137 9 140 5 3 48 -56 96
-132 104 -163 120 -182 156 -182 61 0 59 -7 59 226 l0 214 25 10 c14 5 25 14
25 20 0 10 -22 10 -107 3z"/>
</g>
</svg>
