<?xml version="1.0" standalone="no"?>
<!DOCTYPE svg PUBLIC "-//W3C//DTD SVG 20010904//EN"
 "http://www.w3.org/TR/2001/REC-SVG-20010904/DTD/svg10.dtd">
<svg version="1.0" xmlns="http://www.w3.org/2000/svg"
 width="96.000000pt" height="100.000000pt" viewBox="0 0 96.000000 100.000000"
 preserveAspectRatio="xMidYMid meet">

<g transform="translate(0.000000,100.000000) scale(0.100000,-0.100000)"
fill="#000000" stroke="none">
<path d="M320 969 c-277 -23 -287 -24 -302 -52 -9 -16 -14 -100 -16 -305 -4
-334 0 -358 82 -467 29 -38 67 -85 84 -103 l31 -33 98 6 c54 3 181 10 283 15
251 13 335 21 351 31 11 7 15 79 17 378 l3 371 -88 65 c-48 36 -110 76 -137
90 -60 30 -84 30 -406 4z m376 -28 c53 -24 128 -91 116 -103 -21 -21 -592 -54
-626 -36 -36 19 -116 89 -111 98 3 4 19 10 37 14 33 5 394 36 518 44 14 1 44
-7 66 -17z m192 -174 c9 -7 12 -80 10 -326 l-3 -316 -27 -13 c-24 -11 -164
-23 -540 -46 -82 -5 -89 -4 -115 18 l-28 24 -3 244 c-4 296 1 363 31 383 15 9
82 17 202 25 99 6 230 15 290 19 115 8 162 5 183 -12z"/>
<path d="M672 643 l-22 -4 22 -19 c19 -15 23 -30 26 -94 5 -97 -5 -166 -23
-166 -8 0 -54 60 -102 134 l-88 135 -55 0 c-30 1 -65 -2 -77 -5 -25 -7 -31
-24 -9 -24 23 0 26 -24 26 -205 0 -168 -1 -175 -22 -196 l-23 -21 70 7 c76 8
87 12 61 20 -9 3 -23 7 -31 10 -12 3 -15 25 -15 108 0 123 7 169 26 165 7 -2
57 -68 111 -148 l98 -145 40 0 40 0 5 212 c3 116 7 213 10 216 3 2 14 9 25 15
17 10 13 11 -25 10 -25 0 -55 -3 -68 -5z"/>
</g>
</svg>
